<?xml version="1.0" encoding="utf-8"?>
<!-- Generator: Adobe Illustrator 22.0.1, SVG Export Plug-In . SVG Version: 6.00 Build 0)  -->
<svg version="1.1" id="Layer_1" xmlns="http://www.w3.org/2000/svg" xmlns:xlink="http://www.w3.org/1999/xlink" x="0px" y="0px"
	 viewBox="0 0 394.3 421.8" style="enable-background:new 0 0 394.3 421.8;" xml:space="preserve">
<style type="text/css">
	.st0{fill:#10D2DB;}
	.st1{fill:url(#SVGID_1_);}
	.st2{fill:url(#SVGID_2_);}
	.st3{fill:url(#SVGID_3_);}
	.st4{fill:url(#SVGID_4_);}
	.st5{fill:url(#SVGID_5_);}
	.st6{fill:url(#SVGID_6_);}
	.st7{fill:url(#SVGID_7_);}
</style>
<g>
	<path class="st0" d="M-779.5,327.4l0.9,6.4l1.4-5.7l9.5-33.6h5.4l9.3,33.6l1.3,5.8l1-6.5l7.5-33h6.4l-11.7,48.2h-5.8l-9.9-35.1
		l-0.8-3.7l-0.8,3.7l-10.3,35.1h-5.8l-11.7-48.2h6.4L-779.5,327.4z"/>
	<path class="st0" d="M-688.8,320.3h-20.9v17.1h24.3v5.2h-30.6v-48.2h30.3v5.2h-23.9v15.5h20.9V320.3z"/>
	<path class="st0" d="M-663.8,342.6v-48.2h15.8c5.2,0,9.2,1.1,11.8,3.2c2.6,2.2,4,5.4,4,9.6c0,2.3-0.6,4.2-1.9,6
		c-1.3,1.7-3,3.1-5.2,4c2.6,0.7,4.7,2.1,6.2,4.2c1.5,2,2.3,4.5,2.3,7.3c0,4.3-1.4,7.7-4.2,10.2c-2.8,2.5-6.8,3.7-11.9,3.7H-663.8z
		 M-657.5,314.9h9.6c2.8,0,5-0.7,6.7-2.1c1.7-1.4,2.5-3.3,2.5-5.7c0-2.7-0.8-4.6-2.3-5.8c-1.5-1.2-3.9-1.8-7.1-1.8h-9.4V314.9z
		 M-657.5,320v17.3h10.5c3,0,5.3-0.8,7-2.3c1.7-1.5,2.6-3.6,2.6-6.3c0-5.8-3.2-8.7-9.5-8.7H-657.5z"/>
	<path class="st0" d="M-577.5,342.6v-48.2h13.6c4.2,0,7.9,0.9,11.1,2.8s5.7,4.5,7.5,7.9c1.8,3.4,2.6,7.3,2.7,11.8v3.1
		c0,4.5-0.9,8.5-2.6,11.9c-1.8,3.4-4.3,6-7.5,7.9c-3.3,1.8-7,2.8-11.4,2.8H-577.5z M-571.1,299.6v37.8h6.7c4.9,0,8.7-1.5,11.4-4.6
		c2.7-3,4.1-7.4,4.1-13V317c0-5.5-1.3-9.7-3.9-12.8c-2.6-3-6.2-4.6-10.9-4.6H-571.1z"/>
	<path class="st0" d="M-512.5,342.6h-6.4v-48.2h6.4V342.6z"/>
	<path class="st0" d="M-451.6,336.2c-1.6,2.3-3.9,4.1-6.8,5.2c-2.9,1.2-6.3,1.7-10.2,1.7c-3.9,0-7.4-0.9-10.5-2.8
		c-3-1.8-5.4-4.5-7.1-7.9c-1.7-3.4-2.5-7.3-2.6-11.8v-4.2c0-7.3,1.7-12.9,5.1-16.9c3.4-4,8.1-6,14.3-6c5,0,9.1,1.3,12.1,3.9
		c3.1,2.6,4.9,6.2,5.6,10.9h-6.4c-1.2-6.4-5-9.6-11.4-9.6c-4.3,0-7.5,1.5-9.7,4.5c-2.2,3-3.3,7.3-3.3,13v3.9c0,5.4,1.2,9.7,3.7,12.9
		c2.5,3.2,5.8,4.8,10,4.8c2.4,0,4.5-0.3,6.3-0.8c1.8-0.5,3.3-1.4,4.4-2.7v-10.8h-11.2v-5.2h17.5V336.2z"/>
	<path class="st0" d="M-420.5,342.6h-6.4v-48.2h6.4V342.6z"/>
	<path class="st0" d="M-362.9,299.6h-15.5v43h-6.3v-43h-15.5v-5.2h37.3V299.6z"/>
	<path class="st0" d="M-318,330h-20.2l-4.5,12.6h-6.6l18.4-48.2h5.6l18.4,48.2h-6.5L-318,330z M-336.3,324.8h16.4l-8.2-22.5
		L-336.3,324.8z"/>
	<path class="st0" d="M-280.3,337.4h22.8v5.2h-29.2v-48.2h6.4V337.4z"/>
	<path class="st0" d="M-191.9,321.1c-5.5-1.6-9.4-3.5-11.9-5.8c-2.5-2.3-3.7-5.1-3.7-8.5c0-3.8,1.5-6.9,4.6-9.4
		c3-2.5,7-3.7,11.8-3.7c3.3,0,6.3,0.6,8.9,1.9c2.6,1.3,4.6,3,6,5.3c1.4,2.3,2.1,4.7,2.1,7.4h-6.4c0-2.9-0.9-5.2-2.8-6.9
		c-1.9-1.7-4.5-2.5-7.8-2.5c-3.1,0-5.6,0.7-7.3,2.1c-1.8,1.4-2.6,3.3-2.6,5.8c0,2,0.8,3.6,2.5,5c1.7,1.4,4.5,2.6,8.5,3.7
		c4,1.1,7.1,2.4,9.4,3.7c2.3,1.4,3.9,2.9,5,4.7c1.1,1.8,1.6,3.9,1.6,6.4c0,3.9-1.5,7-4.6,9.4c-3,2.3-7.1,3.5-12.2,3.5
		c-3.3,0-6.4-0.6-9.3-1.9c-2.9-1.3-5.1-3-6.6-5.2c-1.6-2.2-2.3-4.7-2.3-7.5h6.4c0,2.9,1.1,5.2,3.2,6.9c2.2,1.7,5,2.5,8.6,2.5
		c3.4,0,5.9-0.7,7.7-2.1c1.8-1.4,2.7-3.2,2.7-5.6c0-2.4-0.8-4.2-2.5-5.5C-184.5,323.6-187.5,322.3-191.9,321.1z"/>
	<path class="st0" d="M-115.1,320c0,4.7-0.8,8.8-2.4,12.4c-1.6,3.5-3.8,6.2-6.8,8.1s-6.3,2.8-10.2,2.8c-3.8,0-7.2-0.9-10.1-2.8
		c-2.9-1.9-5.2-4.5-6.8-8c-1.6-3.5-2.5-7.5-2.5-12V317c0-4.6,0.8-8.7,2.4-12.3c1.6-3.6,3.9-6.3,6.8-8.2c2.9-1.9,6.3-2.8,10.1-2.8
		c3.9,0,7.3,0.9,10.2,2.8c2.9,1.9,5.2,4.6,6.8,8.1c1.6,3.5,2.4,7.7,2.4,12.4V320z M-121.4,316.9c0-5.7-1.1-10.1-3.4-13.2
		c-2.3-3.1-5.5-4.6-9.6-4.6c-4,0-7.2,1.5-9.5,4.6c-2.3,3.1-3.5,7.3-3.6,12.7v3.5c0,5.5,1.2,9.9,3.5,13.1c2.3,3.2,5.5,4.7,9.6,4.7
		c4.1,0,7.3-1.5,9.5-4.5c2.3-3,3.4-7.3,3.5-12.9V316.9z"/>
	<path class="st0" d="M-85.5,337.4h22.8v5.2h-29.2v-48.2h6.4V337.4z"/>
	<path class="st0" d="M-9.6,294.4v32.8c0,4.5-1.5,8.3-4.3,11.2c-2.8,2.9-6.7,4.5-11.5,4.9l-1.7,0.1c-5.3,0-9.5-1.4-12.6-4.3
		c-3.1-2.8-4.7-6.8-4.8-11.7v-32.8h6.3V327c0,3.5,1,6.2,2.9,8.1c1.9,1.9,4.7,2.9,8.2,2.9c3.6,0,6.4-1,8.3-2.9
		c1.9-1.9,2.9-4.6,2.9-8.1v-32.7H-9.6z"/>
	<path class="st0" d="M47.5,299.6H32v43h-6.3v-43H10.2v-5.2h37.3V299.6z"/>
	<path class="st0" d="M75.1,342.6h-6.4v-48.2h6.4V342.6z"/>
	<path class="st0" d="M137.5,320c0,4.7-0.8,8.8-2.4,12.4c-1.6,3.5-3.8,6.2-6.8,8.1c-2.9,1.9-6.3,2.8-10.2,2.8
		c-3.8,0-7.2-0.9-10.1-2.8c-2.9-1.9-5.2-4.5-6.8-8c-1.6-3.5-2.5-7.5-2.5-12V317c0-4.6,0.8-8.7,2.4-12.3c1.6-3.6,3.9-6.3,6.8-8.2
		c2.9-1.9,6.3-2.8,10.1-2.8c3.9,0,7.3,0.9,10.2,2.8c2.9,1.9,5.2,4.6,6.8,8.1c1.6,3.5,2.4,7.7,2.4,12.4V320z M131.2,316.9
		c0-5.7-1.1-10.1-3.4-13.2c-2.3-3.1-5.5-4.6-9.6-4.6c-4,0-7.2,1.5-9.5,4.6c-2.3,3.1-3.5,7.3-3.6,12.7v3.5c0,5.5,1.2,9.9,3.5,13.1
		c2.3,3.2,5.5,4.7,9.6,4.7c4.1,0,7.3-1.5,9.5-4.5c2.3-3,3.4-7.3,3.5-12.9V316.9z"/>
	<path class="st0" d="M197.8,342.6h-6.4l-24.3-37.1v37.1h-6.4v-48.2h6.4l24.3,37.3v-37.3h6.3V342.6z"/>
	<path class="st0" d="M236.9,321.1c-5.5-1.6-9.4-3.5-11.9-5.8c-2.5-2.3-3.7-5.1-3.7-8.5c0-3.8,1.5-6.9,4.6-9.4c3-2.5,7-3.7,11.8-3.7
		c3.3,0,6.3,0.6,8.9,1.9c2.6,1.3,4.6,3,6,5.3c1.4,2.3,2.1,4.7,2.1,7.4h-6.4c0-2.9-0.9-5.2-2.8-6.9c-1.9-1.7-4.5-2.5-7.8-2.5
		c-3.1,0-5.6,0.7-7.3,2.1c-1.8,1.4-2.6,3.3-2.6,5.8c0,2,0.8,3.6,2.5,5c1.7,1.4,4.5,2.6,8.5,3.7c4,1.1,7.1,2.4,9.4,3.7
		c2.3,1.4,3.9,2.9,5,4.7c1.1,1.8,1.6,3.9,1.6,6.4c0,3.9-1.5,7-4.6,9.4c-3,2.3-7.1,3.5-12.2,3.5c-3.3,0-6.4-0.6-9.3-1.9
		c-2.9-1.3-5.1-3-6.6-5.2c-1.6-2.2-2.3-4.7-2.3-7.5h6.4c0,2.9,1.1,5.2,3.2,6.9c2.2,1.7,5,2.5,8.6,2.5c3.4,0,5.9-0.7,7.7-2.1
		c1.8-1.4,2.7-3.2,2.7-5.6c0-2.4-0.8-4.2-2.5-5.5C244.3,323.6,241.3,322.3,236.9,321.1z"/>
</g>
<g>
	<linearGradient id="SVGID_1_" gradientUnits="userSpaceOnUse" x1="-715.9359" y1="254.7596" x2="-715.9359" y2="86.1586">
		<stop  offset="0" style="stop-color:#10D2DB"/>
		<stop  offset="1" style="stop-color:#0CAAB2"/>
	</linearGradient>
	<path class="st1" d="M-708.3,86.2l6.8,0c23,0,43.4,9.8,61.2,29.3l3.2,3.8c-11.1,7.1-17.1,10.6-18,10.6c-13.2-16-30-24.1-50.5-24.1
		c-25.1,0-44.3,11.2-57.9,33.8c-6.3,12-9.4,23.4-9.4,34.3l-0.6,0.4l-21.4,0c-0.4,0-0.6-0.2-0.6-0.6c0-24.3,9.3-45.6,27.9-64
		C-749.5,93.9-729.8,86.1-708.3,86.2z M-717.7,174.2l80.6,0.1c0.4,0.1,0.6,0.3,0.6,0.8l0,62.3c-8.2,8.9-15.2,14.7-21,17.4h-0.6
		l0-61.2l-59.6,0c-0.4,0-0.6-0.2-0.6-0.6l0-17.8C-718.3,174.5-718,174.2-717.7,174.2z"/>
	<linearGradient id="SVGID_2_" gradientUnits="userSpaceOnUse" x1="-552.4283" y1="267.6488" x2="-552.4283" y2="86.0963">
		<stop  offset="0" style="stop-color:#10D2DB"/>
		<stop  offset="1" style="stop-color:#0CAAB2"/>
	</linearGradient>
	<path class="st2" d="M-611.3,247.7l117.7,0.1c0.5,0,0.8,0.2,0.8,0.6l0,18.5c0,0.5-0.3,0.8-0.8,0.8l-117.7-0.1
		c-0.5,0-0.8-0.3-0.8-0.8l0-18.5C-612,247.9-611.7,247.7-611.3,247.7z M-611.3,165.1l115.9,0.1c0.5,0.1,0.8,0.3,0.8,0.8l0,18.5
		c0,0.5-0.3,0.8-0.8,0.8l-115.9-0.1c-0.5,0-0.8-0.3-0.8-0.8l0-18.5C-611.9,165.3-611.7,165.1-611.3,165.1z M-611.2,86.1l117.7,0.1
		c0.5,0.1,0.8,0.3,0.8,0.8l0,18.5c0,0.4-0.3,0.6-0.8,0.6l-117.7-0.1c-0.5,0-0.8-0.2-0.8-0.6l0-18.5
		C-611.9,86.3-611.6,86.1-611.2,86.1z"/>
	<linearGradient id="SVGID_3_" gradientUnits="userSpaceOnUse" x1="-392.7806" y1="267.7656" x2="-392.7806" y2="86.1898">
		<stop  offset="0" style="stop-color:#10D2DB"/>
		<stop  offset="1" style="stop-color:#0CAAB2"/>
	</linearGradient>
	<path class="st3" d="M-467.2,86.2l22.4,0c1.6,1.7,17.5,23.2,47.7,64.4c9.3,12.4,35.8,48.5,79.5,108.3l0,8.1c0,0.5-0.2,0.8-0.6,0.8
		l-21,0c-3.1-3.8-24.6-33.1-64.4-88c-42.9-58.5-64.4-88-64.4-88.6l0-4.2C-467.9,86.4-467.6,86.2-467.2,86.2z"/>
	<linearGradient id="SVGID_4_" gradientUnits="userSpaceOnUse" x1="-232.6268" y1="267.859" x2="-232.6268" y2="86.3046">
		<stop  offset="0" style="stop-color:#10D2DB"/>
		<stop  offset="1" style="stop-color:#0CAAB2"/>
	</linearGradient>
	<path class="st4" d="M-291.5,247.9l117.7,0.1c0.5,0,0.8,0.2,0.8,0.6l0,18.5c0,0.5-0.3,0.8-0.8,0.8l-117.7-0.1
		c-0.5,0-0.8-0.3-0.8-0.8l0-18.5C-292.2,248.1-291.9,247.9-291.5,247.9z M-291.5,165.3l115.9,0.1c0.5,0.1,0.8,0.3,0.8,0.8l0,18.5
		c0,0.5-0.3,0.8-0.8,0.8l-115.9-0.1c-0.5,0-0.8-0.3-0.8-0.8l0-18.5C-292.1,165.5-291.9,165.3-291.5,165.3z M-291.4,86.3l117.7,0.1
		c0.5,0.1,0.8,0.3,0.8,0.8l0,18.5c0,0.4-0.3,0.6-0.8,0.6l-117.7-0.1c-0.5,0-0.8-0.2-0.8-0.6l0-18.5
		C-292.1,86.6-291.8,86.3-291.4,86.3z"/>
	<linearGradient id="SVGID_5_" gradientUnits="userSpaceOnUse" x1="-63.4203" y1="267.9836" x2="-63.4203" y2="86.4001">
		<stop  offset="0" style="stop-color:#10D2DB"/>
		<stop  offset="1" style="stop-color:#0CAAB2"/>
	</linearGradient>
	<path class="st5" d="M-144.2,86.4l27.1,0c3.8,4.8,21.8,28.9,54,72.3h0.4c28-38.7,45.9-62.8,53.5-72.2l27,0v0.4l-65.9,87.8l0,0.4
		c1.6,1.8,24.8,32.5,69.7,92.2l0,0.8l-26.7,0c-1.1-0.9-20.3-26.5-57.5-76.9h-0.4l-58,76.8l-27.1,0l0-0.8l70.2-92.1l-66.1-88.3V86.4z
		"/>
	<linearGradient id="SVGID_6_" gradientUnits="userSpaceOnUse" x1="59.5867" y1="268.0148" x2="59.5867" y2="86.5247">
		<stop  offset="0" style="stop-color:#10D2DB"/>
		<stop  offset="1" style="stop-color:#0CAAB2"/>
	</linearGradient>
	<path class="st6" d="M49,86.5l21.3,0c0.5,0.1,0.8,0.3,0.8,0.6l-0.1,180.1c0,0.5-0.3,0.8-0.8,0.8l-21.3,0c-0.5,0-0.8-0.3-0.8-0.8
		l0.1-180.1C48.3,86.7,48.6,86.5,49,86.5z"/>
	<linearGradient id="SVGID_7_" gradientUnits="userSpaceOnUse" x1="174.4785" y1="268.0927" x2="174.4785" y2="86.4857">
		<stop  offset="0" style="stop-color:#10D2DB"/>
		<stop  offset="1" style="stop-color:#0CAAB2"/>
	</linearGradient>
	<path class="st7" d="M183.2,86.5l6.6,0c22.8,0,42.9,10.1,60.2,30.3c0,0.3,0.9,1.7,2.8,4.2v0.6c-0.3,0-6.4,3.3-18.2,10
		c-12.9-17-29-25.5-48.2-25.5c-18.1,0-33.7,6.1-46.6,18.2c-14,14.2-21,31.9-21,53.1c0,25.7,10.2,45.8,30.6,60.3
		c10.9,7.2,23.2,10.8,36.9,10.8c19.5,0,35.6-8.5,48.2-25.5c12.1,6.5,18.3,10.1,18.6,10.8c-17.7,22.9-38.9,34.4-63.4,34.4l-6.6,0
		c-22.8,0-43.4-8.6-62-25.9c-16.8-18.3-25.2-38.9-25.1-61.8l0-6.6c0-24.7,9.6-46.3,28.6-64.8C142.4,94,161.9,86.5,183.2,86.5z"/>
</g>
</svg>
